<svg width="83" height="82" fill="none" xmlns="http://www.w3.org/2000/svg"><g filter="url(#filter0_i_3966_10561)"><path d="M44.753 30.727l-4.27-4.27 11.484-11.482L68.035 31.04 56.549 42.524l-8.338-8.335 5.945-5.946a2.456 2.456 0 000-3.461 2.451 2.451 0 00-3.458 0l-5.945 5.945zM20.209 62.183a2.451 2.451 0 01-3.458 0 2.452 2.452 0 010-3.458l14.352-14.348-4.27-4.27L8.542 58.402 2.097 80.91l22.51-6.444L42.898 56.17l-8.338-8.335-14.352 14.348zm62.73-46.136L66.919.023 56.3 10.645l16.02 16.028 10.62-10.626zM63.144 47.786a17.54 17.54 0 00-3.835.438L33.727 22.789a16.94 16.94 0 001.026-5.878C34.727 7.55 27.105-.026 17.74.001c-.12 0-.245 0-.366.003l1.272 4.684a9.838 9.838 0 015.549 8.841c.011 5.432-4.383 9.852-9.818 9.871-4.885.012-8.947-3.537-9.732-8.199l-3.118-3.103a16.888 16.888 0 00-.71 4.911c.03 9.362 7.648 16.942 17.017 16.912a16.98 16.98 0 004.625-.653L47.53 58.2a17.015 17.015 0 00-1.314 6.591C46.255 74.15 53.87 81.73 63.242 81.7h.362l-1.268-4.689a9.86 9.86 0 01-5.56-8.833c-.016-5.432 4.378-9.852 9.822-9.867 4.88-.019 8.942 3.533 9.731 8.195l3.118 3.096a16.76 16.76 0 00.71-4.912c-.026-9.354-7.648-16.93-17.013-16.903z" fill="#3E68FF"/></g><defs><filter id="filter0_i_3966_10561" x=".817" y="0" width="82.122" height="81.699" filterUnits="userSpaceOnUse" color-interpolation-filters="sRGB"><feFlood flood-opacity="0" result="BackgroundImageFix"/><feBlend in="SourceGraphic" in2="BackgroundImageFix" result="shape"/><feColorMatrix in="SourceAlpha" values="0 0 0 0 0 0 0 0 0 0 0 0 0 0 0 0 0 0 127 0" result="hardAlpha"/><feOffset/><feGaussianBlur stdDeviation="6"/><feComposite in2="hardAlpha" operator="arithmetic" k2="-1" k3="1"/><feColorMatrix values="0 0 0 0 1 0 0 0 0 1 0 0 0 0 1 0 0 0 0.4 0"/><feBlend in2="shape" result="effect1_innerShadow_3966_10561"/></filter></defs></svg>