<svg width="96" height="66" fill="none" xmlns="http://www.w3.org/2000/svg"><g filter="url(#filter0_i_3966_11072)"><path d="M33.6 0C24.689 0 16.142 3.477 9.841 9.665 3.54 15.855 0 24.248 0 33s3.54 17.146 9.841 23.334C16.142 62.524 24.69 66 33.6 66c4.992 0 9.888-1.131 14.4-3.206C52.512 64.87 57.408 66 62.4 66c8.911 0 17.458-3.477 23.759-9.666C92.46 50.146 96 41.752 96 33c0-8.752-3.54-17.146-9.841-23.335C79.858 3.477 71.31 0 62.4 0 57.408 0 52.512 1.131 48 3.206 43.488 1.13 38.592 0 33.6 0zm28.8 9.429c6.365 0 12.47 2.483 16.97 6.903C83.872 20.753 86.4 26.748 86.4 33c0 6.252-2.529 12.247-7.03 16.667-4.5 4.421-10.605 6.904-16.97 6.904a23.34 23.34 0 01-4.8-.471c6.144-6.176 9.6-14.473 9.6-23.1s-3.456-16.924-9.6-23.053a23.377 23.377 0 014.8-.518zM48 14.143C54.048 18.62 57.6 25.599 57.6 33S54.048 47.379 48 51.857C41.952 47.38 38.4 40.401 38.4 33s3.552-14.379 9.6-18.857z" fill="#3E68FF"/></g><defs><filter id="filter0_i_3966_11072" x="0" y="0" width="96" height="66" filterUnits="userSpaceOnUse" color-interpolation-filters="sRGB"><feFlood flood-opacity="0" result="BackgroundImageFix"/><feBlend in="SourceGraphic" in2="BackgroundImageFix" result="shape"/><feColorMatrix in="SourceAlpha" values="0 0 0 0 0 0 0 0 0 0 0 0 0 0 0 0 0 0 127 0" result="hardAlpha"/><feOffset/><feGaussianBlur stdDeviation="6"/><feComposite in2="hardAlpha" operator="arithmetic" k2="-1" k3="1"/><feColorMatrix values="0 0 0 0 1 0 0 0 0 1 0 0 0 0 1 0 0 0 0.4 0"/><feBlend in2="shape" result="effect1_innerShadow_3966_11072"/></filter></defs></svg>