<svg width="72" height="66" fill="none" xmlns="http://www.w3.org/2000/svg"><g filter="url(#filter0_i_3966_11052)"><path fill-rule="evenodd" clip-rule="evenodd" d="M63.476 0H8.524a8.606 8.606 0 00-6.02 2.472A8.386 8.386 0 000 8.415v49.157a8.399 8.399 0 002.508 5.952A8.62 8.62 0 008.538 66h54.925a8.62 8.62 0 006.029-2.476A8.399 8.399 0 0072 57.572V8.415a8.386 8.386 0 00-2.504-5.943A8.606 8.606 0 0063.476 0zM51.429 42.329c0 1.356-.34 2.691-.988 3.887a8.277 8.277 0 01-2.728 2.967l-8.756 5.762a5.385 5.385 0 01-2.957.883 5.385 5.385 0 01-2.957-.883l-8.756-5.762a8.277 8.277 0 01-2.728-2.967 8.154 8.154 0 01-.988-3.887v-15.56a1.538 1.538 0 01.394-1.037c.257-.286.61-.469.995-.512a30.537 30.537 0 007.714-2.056 33.118 33.118 0 005.002-2.539 2.518 2.518 0 012.648 0 33.118 33.118 0 005.002 2.538 30.537 30.537 0 007.714 2.057c.384.043.738.226.995.512.256.285.396.654.394 1.036v15.56zm15.428-31.172c0 1.08-.435 2.116-1.209 2.88a4.155 4.155 0 01-2.918 1.194H9.27a4.155 4.155 0 01-2.918-1.194 4.048 4.048 0 01-1.21-2.88V9.15c0-1.08.436-2.117 1.21-2.88A4.154 4.154 0 019.27 5.076h53.46c1.095 0 2.144.43 2.918 1.193a4.048 4.048 0 011.21 2.881v2.005zM13.5 13a2.5 2.5 0 100-5 2.5 2.5 0 000 5zM26 10.5a2.5 2.5 0 11-5 0 2.5 2.5 0 015 0zm7.5 2.5a2.5 2.5 0 100-5 2.5 2.5 0 000 5zm1.687 24.198l4.46-4.424.025-.037a2.546 2.546 0 013.585 0 2.505 2.505 0 010 3.556l-6.018 5.97a2.549 2.549 0 01-3.307.239l-2.635-1.96a2.528 2.528 0 01-1.241-1.67 2.494 2.494 0 01.446-2.026 2.527 2.527 0 011.83-1.004 2.553 2.553 0 011.968.703l.887.653z" fill="#3E68FF"/></g><defs><filter id="filter0_i_3966_11052" x="0" y="0" width="72" height="66" filterUnits="userSpaceOnUse" color-interpolation-filters="sRGB"><feFlood flood-opacity="0" result="BackgroundImageFix"/><feBlend in="SourceGraphic" in2="BackgroundImageFix" result="shape"/><feColorMatrix in="SourceAlpha" values="0 0 0 0 0 0 0 0 0 0 0 0 0 0 0 0 0 0 127 0" result="hardAlpha"/><feOffset/><feGaussianBlur stdDeviation="6"/><feComposite in2="hardAlpha" operator="arithmetic" k2="-1" k3="1"/><feColorMatrix values="0 0 0 0 1 0 0 0 0 1 0 0 0 0 1 0 0 0 0.4 0"/><feBlend in2="shape" result="effect1_innerShadow_3966_11052"/></filter></defs></svg>