<svg width="72" height="72" fill="none" xmlns="http://www.w3.org/2000/svg"><g filter="url(#filter0_i_3966_10536)"><path d="M36 0C16.148 0 0 16.153 0 36c0 19.852 16.148 36 36 36s36-16.148 36-36C72 16.153 55.852 0 36 0zm30.704 36c0 7.023-2.382 13.5-6.359 18.68-1.125-.884-2.32-3.255-1.195-5.716 1.133-2.476 1.429-8.203 1.171-10.432-.25-2.227-1.406-7.599-4.554-7.65-3.141-.046-5.297-1.085-7.165-4.812-3.874-7.754 7.274-9.242 3.399-13.538-1.086-1.204-6.688 4.964-7.508-3.258-.056-.583.507-1.462 1.257-2.376C57.914 10.984 66.704 22.48 66.704 36zM31.781 5.602c-.734 1.43-2.671 2.011-3.852 3.086-2.562 2.32-3.663 2-5.046 4.226-1.391 2.227-5.876 5.438-5.876 7.047s2.266 3.512 3.398 3.141c1.133-.372 4.118-.352 5.876.265 1.758.621 14.679 1.242 10.562 12.165-1.304 3.472-7.023 2.886-8.547 8.64-.227.841-1.015 4.446-1.071 5.625-.094 1.821 1.29 8.693-.469 8.693-1.765 0-6.516-6.145-6.516-7.259 0-1.114-1.234-5.02-1.234-8.362 0-3.344-5.688-3.29-5.688-7.734 0-4.013 3.086-6.005 2.392-7.926-.68-1.911-6.103-1.982-8.36-2.211 3.947-10.244 13.236-17.85 24.431-19.396zm-5.437 59.534c1.843-.973 2.03-2.23 3.703-2.3 1.914-.086 3.469-.746 5.625-1.218 1.914-.42 5.336-2.36 8.352-2.61 2.539-.206 7.554.133 8.907 2.587A30.515 30.515 0 0136 66.704a30.522 30.522 0 01-9.657-1.568z" fill="#3E68FF"/></g><defs><filter id="filter0_i_3966_10536" x="0" y="0" width="72" height="72" filterUnits="userSpaceOnUse" color-interpolation-filters="sRGB"><feFlood flood-opacity="0" result="BackgroundImageFix"/><feBlend in="SourceGraphic" in2="BackgroundImageFix" result="shape"/><feColorMatrix in="SourceAlpha" values="0 0 0 0 0 0 0 0 0 0 0 0 0 0 0 0 0 0 127 0" result="hardAlpha"/><feOffset/><feGaussianBlur stdDeviation="6"/><feComposite in2="hardAlpha" operator="arithmetic" k2="-1" k3="1"/><feColorMatrix values="0 0 0 0 1 0 0 0 0 1 0 0 0 0 1 0 0 0 0.4 0"/><feBlend in2="shape" result="effect1_innerShadow_3966_10536"/></filter></defs></svg>